<svg width="1000" height="1000" viewBox="0 0 1000 1000" fill="none" xmlns="http://www.w3.org/2000/svg">
<rect x="200" y="98" width="600" height="124.5" rx="62.25" fill="url(#paint0_linear_31_23)"/>
<rect x="200" y="573.5" width="600" height="124.5" rx="62.25" fill="url(#paint1_linear_31_23)"/>
<path d="M220.069 525.313C218.067 526.418 215.817 526.998 213.531 526.998C206.058 526.998 200 520.94 200 513.467V287.498C200 276.452 208.954 267.498 220 267.498H609.57C630.238 267.498 637.329 295.021 619.235 305.008L220.069 525.313ZM800 506.998C800 518.043 791.046 526.998 780 526.998H393.682C373.014 526.998 365.923 499.474 384.017 489.487L783.767 268.86C785.386 267.966 787.205 267.498 789.055 267.498C795.1 267.498 800 272.398 800 278.442V506.998Z" fill="url(#paint2_linear_31_23)"/>
<path d="M219.56 844V842.016L264.168 783.648H222.888V774.88H279.656V777.056L235.112 835.232H277.224V844H219.56ZM317.833 845.92C311.092 845.92 305.246 844.427 300.297 841.44C295.39 838.453 291.572 834.251 288.841 828.832C286.11 823.413 284.745 817.056 284.745 809.76C284.745 802.208 286.089 795.68 288.777 790.176C291.465 784.672 295.241 780.427 300.105 777.44C305.012 774.453 310.793 772.96 317.449 772.96C324.276 772.96 330.1 774.539 334.921 777.696C339.742 780.811 343.39 785.291 345.865 791.136C348.34 796.981 349.47 803.957 349.257 812.064H339.657V808.736C339.486 799.776 337.545 793.013 333.833 788.448C330.164 783.883 324.788 781.6 317.705 781.6C310.281 781.6 304.585 784.011 300.617 788.832C296.692 793.653 294.729 800.523 294.729 809.44C294.729 818.144 296.692 824.907 300.617 829.728C304.585 834.507 310.196 836.896 317.449 836.896C322.398 836.896 326.708 835.765 330.377 833.504C334.089 831.2 337.012 827.893 339.145 823.584L347.913 826.976C345.182 832.992 341.15 837.664 335.817 840.992C330.526 844.277 324.532 845.92 317.833 845.92ZM291.401 812.064V804.192H344.201V812.064H291.401ZM363.46 844V774.88H371.908V791.52L370.244 789.344C371.012 787.296 372.015 785.419 373.252 783.712C374.489 781.963 375.833 780.533 377.284 779.424C379.076 777.845 381.167 776.651 383.556 775.84C385.945 774.987 388.356 774.496 390.788 774.368C393.22 774.197 395.439 774.368 397.444 774.88V783.712C394.927 783.072 392.175 782.923 389.188 783.264C386.201 783.605 383.449 784.8 380.932 786.848C378.628 788.64 376.9 790.795 375.748 793.312C374.596 795.787 373.828 798.432 373.444 801.248C373.06 804.021 372.868 806.773 372.868 809.504V844H363.46ZM437.199 845.92C430.33 845.92 424.463 844.363 419.599 841.248C414.735 838.133 411.002 833.824 408.399 828.32C405.796 822.816 404.495 816.501 404.495 809.376C404.495 802.123 405.818 795.765 408.463 790.304C411.108 784.843 414.863 780.597 419.727 777.568C424.634 774.496 430.458 772.96 437.199 772.96C444.111 772.96 449.999 774.517 454.863 777.632C459.77 780.704 463.503 784.992 466.063 790.496C468.666 795.957 469.967 802.251 469.967 809.376C469.967 816.629 468.666 823.008 466.063 828.512C463.46 833.973 459.706 838.24 454.799 841.312C449.892 844.384 444.026 845.92 437.199 845.92ZM437.199 836.896C444.879 836.896 450.596 834.357 454.351 829.28C458.106 824.16 459.983 817.525 459.983 809.376C459.983 801.013 458.084 794.357 454.287 789.408C450.532 784.459 444.836 781.984 437.199 781.984C432.036 781.984 427.77 783.157 424.399 785.504C421.071 787.808 418.575 791.029 416.911 795.168C415.29 799.264 414.479 804 414.479 809.376C414.479 817.696 416.399 824.373 420.239 829.408C424.079 834.4 429.732 836.896 437.199 836.896ZM521.717 844C517.834 844.811 513.994 845.131 510.197 844.96C506.442 844.789 503.072 843.979 500.085 842.528C497.141 841.077 494.901 838.816 493.365 835.744C492.128 833.184 491.445 830.603 491.317 828C491.232 825.355 491.189 822.347 491.189 818.976V755.68H500.533V818.592C500.533 821.493 500.554 823.925 500.597 825.888C500.682 827.808 501.13 829.515 501.941 831.008C503.477 833.867 505.909 835.573 509.237 836.128C512.608 836.683 516.768 836.555 521.717 835.744V844ZM476.405 782.944V774.88H521.717V782.944H476.405ZM561.699 845.92C554.83 845.92 548.963 844.363 544.099 841.248C539.235 838.133 535.502 833.824 532.899 828.32C530.296 822.816 528.995 816.501 528.995 809.376C528.995 802.123 530.318 795.765 532.963 790.304C535.608 784.843 539.363 780.597 544.227 777.568C549.134 774.496 554.958 772.96 561.699 772.96C568.611 772.96 574.499 774.517 579.363 777.632C584.27 780.704 588.003 784.992 590.563 790.496C593.166 795.957 594.467 802.251 594.467 809.376C594.467 816.629 593.166 823.008 590.563 828.512C587.96 833.973 584.206 838.24 579.299 841.312C574.392 844.384 568.526 845.92 561.699 845.92ZM561.699 836.896C569.379 836.896 575.096 834.357 578.851 829.28C582.606 824.16 584.483 817.525 584.483 809.376C584.483 801.013 582.584 794.357 578.787 789.408C575.032 784.459 569.336 781.984 561.699 781.984C556.536 781.984 552.27 783.157 548.899 785.504C545.571 787.808 543.075 791.029 541.411 795.168C539.79 799.264 538.979 804 538.979 809.376C538.979 817.696 540.899 824.373 544.739 829.408C548.579 834.4 554.232 836.896 561.699 836.896ZM658.505 844V808.736C658.505 804.896 658.142 801.376 657.417 798.176C656.692 794.933 655.518 792.117 653.897 789.728C652.318 787.296 650.249 785.419 647.689 784.096C645.172 782.773 642.1 782.112 638.473 782.112C635.145 782.112 632.201 782.688 629.641 783.84C627.124 784.992 624.99 786.656 623.241 788.832C621.534 790.965 620.233 793.568 619.337 796.64C618.441 799.712 617.993 803.211 617.993 807.136L611.337 805.664C611.337 798.581 612.574 792.629 615.049 787.808C617.524 782.987 620.937 779.339 625.289 776.864C629.641 774.389 634.633 773.152 640.265 773.152C644.404 773.152 648.009 773.792 651.081 775.072C654.196 776.352 656.82 778.08 658.953 780.256C661.129 782.432 662.878 784.928 664.201 787.744C665.524 790.517 666.484 793.483 667.081 796.64C667.678 799.755 667.977 802.869 667.977 805.984V844H658.505ZM608.521 844V774.88H617.033V791.904H617.993V844H608.521ZM685.865 761.76V751.2H695.273V761.76H685.865ZM685.865 844V774.88H695.273V844H685.865ZM764.38 844V808.736C764.38 804.896 764.017 801.376 763.292 798.176C762.567 794.933 761.393 792.117 759.772 789.728C758.193 787.296 756.124 785.419 753.564 784.096C751.047 782.773 747.975 782.112 744.348 782.112C741.02 782.112 738.076 782.688 735.516 783.84C732.999 784.992 730.865 786.656 729.116 788.832C727.409 790.965 726.108 793.568 725.212 796.64C724.316 799.712 723.868 803.211 723.868 807.136L717.212 805.664C717.212 798.581 718.449 792.629 720.924 787.808C723.399 782.987 726.812 779.339 731.164 776.864C735.516 774.389 740.508 773.152 746.14 773.152C750.279 773.152 753.884 773.792 756.956 775.072C760.071 776.352 762.695 778.08 764.828 780.256C767.004 782.432 768.753 784.928 770.076 787.744C771.399 790.517 772.359 793.483 772.956 796.64C773.553 799.755 773.852 802.869 773.852 805.984V844H764.38ZM714.396 844V774.88H722.908V791.904H723.868V844H714.396Z" fill="#1B3F66"/>
<defs>
<linearGradient id="paint0_linear_31_23" x1="500" y1="98" x2="500" y2="222.5" gradientUnits="userSpaceOnUse">
<stop stop-color="#0B62BA"/>
<stop offset="0.149038" stop-color="#0955A3"/>
<stop offset="1" stop-color="#052C54"/>
</linearGradient>
<linearGradient id="paint1_linear_31_23" x1="500" y1="573.5" x2="500" y2="698" gradientUnits="userSpaceOnUse">
<stop stop-color="#0B62BA"/>
<stop offset="0.149038" stop-color="#0955A3"/>
<stop offset="1" stop-color="#052C54"/>
</linearGradient>
<linearGradient id="paint2_linear_31_23" x1="500" y1="267.498" x2="500" y2="526.998" gradientUnits="userSpaceOnUse">
<stop stop-color="#0B62BA"/>
<stop offset="0.149038" stop-color="#0955A3"/>
<stop offset="1" stop-color="#052C54"/>
</linearGradient>
</defs>
</svg>
