<svg width="1000" height="1000" viewBox="0 0 1000 1000" fill="none" xmlns="http://www.w3.org/2000/svg">
<rect width="1000" height="1000" fill="white"/>
<rect x="100" y="100" width="800" height="166" rx="83" fill="#0B62BA"/>
<rect x="100" y="734" width="800" height="166" rx="83" fill="#0B62BA"/>
<path d="M126.757 669.751C124.087 671.224 121.088 671.997 118.04 671.997C108.077 671.997 100 663.92 100 653.957V345.997C100 334.951 108.954 325.997 120 325.997H671.969C692.636 325.997 699.727 353.521 681.633 363.507L126.757 669.751ZM900 651.997C900 663.043 891.046 671.997 880 671.997H332.364C311.697 671.997 304.606 644.473 322.7 634.487L878.354 327.814C880.513 326.622 882.939 325.997 885.406 325.997C893.466 325.997 900 332.531 900 340.591V651.997Z" fill="#0B62BA"/>
</svg>
